<?xml version="1.0" encoding="UTF-8" standalone="no"?><!-- Generator: Gravit.io --><svg xmlns="http://www.w3.org/2000/svg" xmlns:xlink="http://www.w3.org/1999/xlink" style="isolation:isolate" viewBox="0 0 300 39" width="300pt" height="39pt"><g><path d=" M 30.47 8.579 L 4.25 8.579 C 1.902 8.579 0 6.676 0 4.328 C 0 1.981 1.902 0.079 4.25 0.079 L 30.47 0.079 C 32.816 0.079 34.72 1.981 34.72 4.328 C 34.72 6.676 32.816 8.579 30.47 8.579 Z " fill="rgb(56,189,248)"/><path d=" M 30.47 22.037 L 14.514 22.037 C 12.166 22.037 10.264 20.134 10.264 17.786 C 10.264 15.439 12.166 13.537 14.514 13.537 L 30.47 13.537 C 32.816 13.537 34.72 15.439 34.72 17.786 C 34.72 20.134 32.816 22.037 30.47 22.037 Z " fill="rgb(253,177,73)"/><circle vector-effect="non-scaling-stroke" cx="42.52324007483846" cy="17.803179962748377" r="4.2334509621449925" fill="rgb(62,188,168)"/><path d=" M 13.432 35.495 L 4.25 35.495 C 1.902 35.495 0 33.592 0 31.244 C 0 28.897 1.902 26.995 4.25 26.995 L 13.432 26.995 C 15.779 26.995 17.683 28.897 17.683 31.244 C 17.683 33.592 15.779 35.495 13.432 35.495 Z " fill="rgb(62,188,168)"/><path d=" M 30.45 35.495 L 25.486 35.495 C 23.138 35.495 21.236 33.592 21.236 31.244 C 21.236 28.897 23.138 26.995 25.486 26.995 L 30.45 26.995 C 32.797 26.995 34.701 28.897 34.701 31.244 C 34.701 33.592 32.797 35.495 30.45 35.495 Z " fill="rgb(56,189,248)"/><path d=" M 79.138 23.421 L 82.623 26.724 L 82.623 26.724 Q 80.699 29.047 78.086 30.263 L 78.086 30.263 L 78.086 30.263 Q 75.473 31.479 72.242 31.479 L 72.242 31.479 L 72.242 31.479 Q 69.339 31.479 66.852 30.426 L 66.852 30.426 L 66.852 30.426 Q 64.366 29.374 62.551 27.559 L 62.551 27.559 L 62.551 27.559 Q 60.736 25.744 59.684 23.258 L 59.684 23.258 L 59.684 23.258 Q 58.631 20.771 58.631 17.904 L 58.631 17.904 L 58.631 17.904 Q 58.631 15.036 59.684 12.55 L 59.684 12.55 L 59.684 12.55 Q 60.736 10.064 62.551 8.249 L 62.551 8.249 L 62.551 8.249 Q 64.366 6.434 66.852 5.382 L 66.852 5.382 L 66.852 5.382 Q 69.339 4.329 72.242 4.329 L 72.242 4.329 L 72.242 4.329 Q 75.364 4.329 77.741 5.418 L 77.741 5.418 L 77.741 5.418 Q 80.118 6.507 81.97 8.576 L 81.97 8.576 L 78.521 11.915 L 78.521 11.915 Q 77.36 10.572 75.854 9.774 L 75.854 9.774 L 75.854 9.774 Q 74.347 8.975 72.279 8.975 L 72.279 8.975 L 72.279 8.975 Q 70.464 8.975 68.867 9.61 L 68.867 9.61 L 68.867 9.61 Q 67.27 10.245 66.09 11.407 L 66.09 11.407 L 66.09 11.407 Q 64.91 12.568 64.221 14.22 L 64.221 14.22 L 64.221 14.22 Q 63.531 15.871 63.531 17.904 L 63.531 17.904 L 63.531 17.904 Q 63.531 19.936 64.221 21.588 L 64.221 21.588 L 64.221 21.588 Q 64.91 23.239 66.09 24.401 L 66.09 24.401 L 66.09 24.401 Q 67.27 25.562 68.867 26.198 L 68.867 26.198 L 68.867 26.198 Q 70.464 26.833 72.279 26.833 L 72.279 26.833 L 72.279 26.833 Q 74.456 26.833 76.144 25.944 L 76.144 25.944 L 76.144 25.944 Q 77.832 25.054 79.138 23.421 L 79.138 23.421 Z  M 93.657 12.532 L 93.657 12.532 L 93.657 12.532 Q 95.726 12.532 97.45 13.24 L 97.45 13.24 L 97.45 13.24 Q 99.174 13.947 100.426 15.2 L 100.426 15.2 L 100.426 15.2 Q 101.678 16.452 102.386 18.194 L 102.386 18.194 L 102.386 18.194 Q 103.094 19.936 103.094 22.005 L 103.094 22.005 L 103.094 22.005 Q 103.094 24.074 102.386 25.817 L 102.386 25.817 L 102.386 25.817 Q 101.678 27.559 100.426 28.811 L 100.426 28.811 L 100.426 28.811 Q 99.174 30.063 97.45 30.771 L 97.45 30.771 L 97.45 30.771 Q 95.726 31.479 93.657 31.479 L 93.657 31.479 L 93.657 31.479 Q 91.588 31.479 89.864 30.771 L 89.864 30.771 L 89.864 30.771 Q 88.14 30.063 86.888 28.811 L 86.888 28.811 L 86.888 28.811 Q 85.635 27.559 84.928 25.817 L 84.928 25.817 L 84.928 25.817 Q 84.22 24.074 84.22 22.005 L 84.22 22.005 L 84.22 22.005 Q 84.22 19.936 84.928 18.194 L 84.928 18.194 L 84.928 18.194 Q 85.635 16.452 86.888 15.2 L 86.888 15.2 L 86.888 15.2 Q 88.14 13.947 89.864 13.24 L 89.864 13.24 L 89.864 13.24 Q 91.588 12.532 93.657 12.532 Z  M 93.657 27.087 L 93.657 27.087 L 93.657 27.087 Q 94.564 27.087 95.417 26.742 L 95.417 26.742 L 95.417 26.742 Q 96.27 26.397 96.924 25.744 L 96.924 25.744 L 96.924 25.744 Q 97.577 25.091 97.958 24.147 L 97.958 24.147 L 97.958 24.147 Q 98.339 23.203 98.339 22.005 L 98.339 22.005 L 98.339 22.005 Q 98.339 20.808 97.958 19.864 L 97.958 19.864 L 97.958 19.864 Q 97.577 18.92 96.924 18.267 L 96.924 18.267 L 96.924 18.267 Q 96.27 17.614 95.417 17.269 L 95.417 17.269 L 95.417 17.269 Q 94.564 16.924 93.657 16.924 L 93.657 16.924 L 93.657 16.924 Q 92.713 16.924 91.878 17.269 L 91.878 17.269 L 91.878 17.269 Q 91.044 17.614 90.39 18.267 L 90.39 18.267 L 90.39 18.267 Q 89.737 18.92 89.356 19.864 L 89.356 19.864 L 89.356 19.864 Q 88.975 20.808 88.975 22.005 L 88.975 22.005 L 88.975 22.005 Q 88.975 23.203 89.356 24.147 L 89.356 24.147 L 89.356 24.147 Q 89.737 25.091 90.39 25.744 L 90.39 25.744 L 90.39 25.744 Q 91.044 26.397 91.878 26.742 L 91.878 26.742 L 91.878 26.742 Q 92.713 27.087 93.657 27.087 Z  M 119.391 30.898 L 119.391 28.757 L 119.1 28.757 L 119.1 28.757 Q 118.447 29.882 117.068 30.68 L 117.068 30.68 L 117.068 30.68 Q 115.689 31.479 113.656 31.479 L 113.656 31.479 L 113.656 31.479 Q 111.95 31.479 110.408 30.771 L 110.408 30.771 L 110.408 30.771 Q 108.865 30.063 107.685 28.811 L 107.685 28.811 L 107.685 28.811 Q 106.506 27.559 105.816 25.817 L 105.816 25.817 L 105.816 25.817 Q 105.126 24.074 105.126 22.005 L 105.126 22.005 L 105.126 22.005 Q 105.126 19.936 105.816 18.194 L 105.816 18.194 L 105.816 18.194 Q 106.506 16.452 107.685 15.2 L 107.685 15.2 L 107.685 15.2 Q 108.865 13.947 110.408 13.24 L 110.408 13.24 L 110.408 13.24 Q 111.95 12.532 113.656 12.532 L 113.656 12.532 L 113.656 12.532 Q 115.689 12.532 117.068 13.33 L 117.068 13.33 L 117.068 13.33 Q 118.447 14.129 119.1 15.254 L 119.1 15.254 L 119.391 15.254 L 119.1 12.713 L 119.1 4.91 L 123.855 4.91 L 123.855 30.898 L 119.391 30.898 Z  M 114.636 27.087 L 114.636 27.087 L 114.636 27.087 Q 115.58 27.087 116.433 26.742 L 116.433 26.742 L 116.433 26.742 Q 117.286 26.397 117.939 25.744 L 117.939 25.744 L 117.939 25.744 Q 118.592 25.091 118.992 24.147 L 118.992 24.147 L 118.992 24.147 Q 119.391 23.203 119.391 22.005 L 119.391 22.005 L 119.391 22.005 Q 119.391 20.808 118.992 19.864 L 118.992 19.864 L 118.992 19.864 Q 118.592 18.92 117.939 18.267 L 117.939 18.267 L 117.939 18.267 Q 117.286 17.614 116.433 17.269 L 116.433 17.269 L 116.433 17.269 Q 115.58 16.924 114.636 16.924 L 114.636 16.924 L 114.636 16.924 Q 113.692 16.924 112.839 17.287 L 112.839 17.287 L 112.839 17.287 Q 111.986 17.65 111.333 18.303 L 111.333 18.303 L 111.333 18.303 Q 110.68 18.957 110.281 19.9 L 110.281 19.9 L 110.281 19.9 Q 109.881 20.844 109.881 22.005 L 109.881 22.005 L 109.881 22.005 Q 109.881 23.167 110.281 24.111 L 110.281 24.111 L 110.281 24.111 Q 110.68 25.054 111.333 25.708 L 111.333 25.708 L 111.333 25.708 Q 111.986 26.361 112.839 26.724 L 112.839 26.724 L 112.839 26.724 Q 113.692 27.087 114.636 27.087 Z  M 140.624 24.655 L 144.58 26.615 L 144.58 26.615 Q 143.346 28.793 141.259 30.136 L 141.259 30.136 L 141.259 30.136 Q 139.172 31.479 136.16 31.479 L 136.16 31.479 L 136.16 31.479 Q 134.127 31.479 132.403 30.771 L 132.403 30.771 L 132.403 30.771 Q 130.679 30.063 129.409 28.793 L 129.409 28.793 L 129.409 28.793 Q 128.138 27.523 127.43 25.798 L 127.43 25.798 L 127.43 25.798 Q 126.723 24.074 126.723 22.005 L 126.723 22.005 L 126.723 22.005 Q 126.723 20.082 127.412 18.358 L 127.412 18.358 L 127.412 18.358 Q 128.102 16.633 129.336 15.345 L 129.336 15.345 L 129.336 15.345 Q 130.57 14.056 132.258 13.294 L 132.258 13.294 L 132.258 13.294 Q 133.946 12.532 135.978 12.532 L 135.978 12.532 L 135.978 12.532 Q 138.12 12.532 139.789 13.24 L 139.789 13.24 L 139.789 13.24 Q 141.459 13.947 142.584 15.2 L 142.584 15.2 L 142.584 15.2 Q 143.709 16.452 144.29 18.158 L 144.29 18.158 L 144.29 18.158 Q 144.871 19.864 144.871 21.86 L 144.871 21.86 L 144.871 21.86 Q 144.871 22.114 144.871 22.296 L 144.871 22.296 L 144.871 22.296 Q 144.834 22.514 144.834 22.695 L 144.834 22.695 L 144.834 22.695 Q 144.798 22.877 144.798 23.095 L 144.798 23.095 L 131.405 23.095 L 131.405 23.095 Q 131.55 24.183 132.004 24.964 L 132.004 24.964 L 132.004 24.964 Q 132.457 25.744 133.129 26.27 L 133.129 26.27 L 133.129 26.27 Q 133.8 26.796 134.599 27.032 L 134.599 27.032 L 134.599 27.032 Q 135.397 27.268 136.232 27.268 L 136.232 27.268 L 136.232 27.268 Q 137.866 27.268 138.936 26.524 L 138.936 26.524 L 138.936 26.524 Q 140.007 25.78 140.624 24.655 L 140.624 24.655 Z  M 131.659 19.719 L 140.261 19.719 L 140.261 19.719 Q 140.225 19.247 139.953 18.666 L 139.953 18.666 L 139.953 18.666 Q 139.68 18.085 139.154 17.577 L 139.154 17.577 L 139.154 17.577 Q 138.628 17.069 137.847 16.742 L 137.847 16.742 L 137.847 16.742 Q 137.067 16.416 135.978 16.416 L 135.978 16.416 L 135.978 16.416 Q 134.454 16.416 133.292 17.287 L 133.292 17.287 L 133.292 17.287 Q 132.131 18.158 131.659 19.719 L 131.659 19.719 Z  M 148.5 30.898 L 148.5 4.91 L 153.4 4.91 L 153.4 15.291 L 164.325 15.291 L 164.325 4.91 L 169.225 4.91 L 169.225 30.898 L 164.325 30.898 L 164.325 19.937 L 153.4 19.937 L 153.4 30.898 L 148.5 30.898 Z  M 184.288 30.898 L 184.288 29.011 L 183.998 29.011 L 183.998 29.011 Q 183.163 30.027 181.983 30.753 L 181.983 30.753 L 181.983 30.753 Q 180.804 31.479 178.953 31.479 L 178.953 31.479 L 178.953 31.479 Q 177.573 31.479 176.357 31.025 L 176.357 31.025 L 176.357 31.025 Q 175.142 30.572 174.234 29.773 L 174.234 29.773 L 174.234 29.773 Q 173.327 28.974 172.819 27.849 L 172.819 27.849 L 172.819 27.849 Q 172.31 26.724 172.31 25.381 L 172.31 25.381 L 172.31 25.381 Q 172.31 24.002 172.855 22.895 L 172.855 22.895 L 172.855 22.895 Q 173.399 21.788 174.379 20.989 L 174.379 20.989 L 174.379 20.989 Q 175.359 20.191 176.684 19.773 L 176.684 19.773 L 176.684 19.773 Q 178.009 19.356 179.57 19.356 L 179.57 19.356 L 179.57 19.356 Q 181.312 19.356 182.437 19.628 L 182.437 19.628 L 182.437 19.628 Q 183.562 19.9 184.288 20.191 L 184.288 20.191 L 184.288 19.646 L 184.288 19.646 Q 184.288 18.231 183.163 17.305 L 183.163 17.305 L 183.163 17.305 Q 182.038 16.379 180.368 16.379 L 180.368 16.379 L 180.368 16.379 Q 177.9 16.379 176.194 18.448 L 176.194 18.448 L 172.746 16.089 L 172.746 16.089 Q 175.577 12.532 180.477 12.532 L 180.477 12.532 L 180.477 12.532 Q 184.615 12.532 186.793 14.474 L 186.793 14.474 L 186.793 14.474 Q 188.97 16.416 188.97 20.227 L 188.97 20.227 L 188.97 30.898 L 184.288 30.898 Z  M 184.288 23.675 L 184.288 23.675 L 184.288 23.675 Q 183.453 23.276 182.564 23.04 L 182.564 23.04 L 182.564 23.04 Q 181.675 22.804 180.622 22.804 L 180.622 22.804 L 180.622 22.804 Q 178.916 22.804 177.991 23.548 L 177.991 23.548 L 177.991 23.548 Q 177.065 24.292 177.065 25.381 L 177.065 25.381 L 177.065 25.381 Q 177.065 26.47 177.955 27.123 L 177.955 27.123 L 177.955 27.123 Q 178.844 27.776 180.005 27.776 L 180.005 27.776 L 180.005 27.776 Q 180.949 27.776 181.747 27.432 L 181.747 27.432 L 181.747 27.432 Q 182.546 27.087 183.109 26.524 L 183.109 26.524 L 183.109 26.524 Q 183.671 25.962 183.98 25.218 L 183.98 25.218 L 183.98 25.218 Q 184.288 24.474 184.288 23.675 Z  M 194.016 38.738 L 197.972 30.027 L 190.495 13.113 L 195.903 13.113 L 200.404 23.893 L 200.658 23.893 L 204.977 13.113 L 210.276 13.113 L 199.133 38.738 L 194.016 38.738 Z  M 219.132 31.479 L 219.132 31.479 L 219.132 31.479 Q 217.39 31.479 216.029 31.043 L 216.029 31.043 L 216.029 31.043 Q 214.668 30.608 213.67 29.9 L 213.67 29.9 L 213.67 29.9 Q 212.672 29.192 211.982 28.267 L 211.982 28.267 L 211.982 28.267 Q 211.292 27.341 210.929 26.397 L 210.929 26.397 L 215.176 24.582 L 215.176 24.582 Q 215.793 25.962 216.828 26.633 L 216.828 26.633 L 216.828 26.633 Q 217.862 27.305 219.132 27.305 L 219.132 27.305 L 219.132 27.305 Q 220.439 27.305 221.201 26.833 L 221.201 26.833 L 221.201 26.833 Q 221.963 26.361 221.963 25.708 L 221.963 25.708 L 221.963 25.708 Q 221.963 24.982 221.328 24.528 L 221.328 24.528 L 221.328 24.528 Q 220.693 24.075 219.132 23.712 L 219.132 23.712 L 216.628 23.167 L 216.628 23.167 Q 215.793 22.986 214.904 22.586 L 214.904 22.586 L 214.904 22.586 Q 214.015 22.187 213.289 21.57 L 213.289 21.57 L 213.289 21.57 Q 212.563 20.953 212.091 20.082 L 212.091 20.082 L 212.091 20.082 Q 211.619 19.211 211.619 18.049 L 211.619 18.049 L 211.619 18.049 Q 211.619 16.742 212.182 15.726 L 212.182 15.726 L 212.182 15.726 Q 212.744 14.71 213.724 14.002 L 213.724 14.002 L 213.724 14.002 Q 214.704 13.294 216.029 12.913 L 216.029 12.913 L 216.029 12.913 Q 217.354 12.532 218.878 12.532 L 218.878 12.532 L 218.878 12.532 Q 221.419 12.532 223.415 13.53 L 223.415 13.53 L 223.415 13.53 Q 225.412 14.528 226.355 16.706 L 226.355 16.706 L 222.254 18.376 L 222.254 18.376 Q 221.746 17.323 220.766 16.851 L 220.766 16.851 L 220.766 16.851 Q 219.786 16.379 218.806 16.379 L 218.806 16.379 L 218.806 16.379 Q 217.789 16.379 217.027 16.797 L 217.027 16.797 L 217.027 16.797 Q 216.265 17.214 216.265 17.868 L 216.265 17.868 L 216.265 17.868 Q 216.265 18.485 216.9 18.848 L 216.9 18.848 L 216.9 18.848 Q 217.535 19.211 218.624 19.501 L 218.624 19.501 L 221.346 20.155 L 221.346 20.155 Q 224.069 20.808 225.393 22.242 L 225.393 22.242 L 225.393 22.242 Q 226.718 23.675 226.718 25.635 L 226.718 25.635 L 226.718 25.635 Q 226.718 26.797 226.174 27.849 L 226.174 27.849 L 226.174 27.849 Q 225.629 28.902 224.631 29.719 L 224.631 29.719 L 224.631 29.719 Q 223.633 30.535 222.236 31.007 L 222.236 31.007 L 222.236 31.007 Q 220.838 31.479 219.132 31.479 Z  M 231.4 25.144 L 231.4 17.178 L 228.279 17.178 L 228.279 13.113 L 231.4 13.113 L 231.4 7.669 L 236.155 7.669 L 236.155 13.113 L 240.511 13.113 L 240.511 17.178 L 236.155 17.178 L 236.155 24.285 L 236.155 24.285 Q 236.155 24.921 236.282 25.463 L 236.282 25.463 L 236.282 25.463 Q 236.409 26.005 236.772 26.379 L 236.772 26.379 L 236.772 26.379 Q 237.28 26.978 238.224 26.978 L 238.224 26.978 L 238.224 26.978 Q 238.841 26.978 239.204 26.851 L 239.204 26.851 L 239.204 26.851 Q 239.567 26.724 239.894 26.506 L 239.894 26.506 L 241.237 30.68 L 241.237 30.68 Q 240.402 31.08 239.44 31.279 L 239.44 31.279 L 239.44 31.279 Q 238.478 31.479 237.317 31.479 L 237.317 31.479 L 237.317 31.479 Q 235.974 31.479 234.903 31.053 L 234.903 31.053 L 234.903 31.053 Q 233.832 30.627 233.106 29.886 L 233.106 29.886 L 233.106 29.886 Q 231.4 28.219 231.4 25.144 L 231.4 25.144 Z  M 254.594 30.898 L 254.594 29.011 L 254.303 29.011 L 254.303 29.011 Q 253.468 30.027 252.289 30.753 L 252.289 30.753 L 252.289 30.753 Q 251.109 31.479 249.258 31.479 L 249.258 31.479 L 249.258 31.479 Q 247.879 31.479 246.663 31.025 L 246.663 31.025 L 246.663 31.025 Q 245.447 30.572 244.54 29.773 L 244.54 29.773 L 244.54 29.773 Q 243.632 28.974 243.124 27.849 L 243.124 27.849 L 243.124 27.849 Q 242.616 26.724 242.616 25.381 L 242.616 25.381 L 242.616 25.381 Q 242.616 24.002 243.16 22.895 L 243.16 22.895 L 243.16 22.895 Q 243.705 21.788 244.685 20.989 L 244.685 20.989 L 244.685 20.989 Q 245.665 20.191 246.99 19.773 L 246.99 19.773 L 246.99 19.773 Q 248.314 19.356 249.875 19.356 L 249.875 19.356 L 249.875 19.356 Q 251.617 19.356 252.743 19.628 L 252.743 19.628 L 252.743 19.628 Q 253.868 19.9 254.594 20.191 L 254.594 20.191 L 254.594 19.646 L 254.594 19.646 Q 254.594 18.231 253.468 17.305 L 253.468 17.305 L 253.468 17.305 Q 252.343 16.379 250.674 16.379 L 250.674 16.379 L 250.674 16.379 Q 248.206 16.379 246.5 18.448 L 246.5 18.448 L 243.051 16.089 L 243.051 16.089 Q 245.883 12.532 250.783 12.532 L 250.783 12.532 L 250.783 12.532 Q 254.92 12.532 257.098 14.474 L 257.098 14.474 L 257.098 14.474 Q 259.276 16.416 259.276 20.227 L 259.276 20.227 L 259.276 30.898 L 254.594 30.898 Z  M 254.594 23.675 L 254.594 23.675 L 254.594 23.675 Q 253.759 23.276 252.87 23.04 L 252.87 23.04 L 252.87 23.04 Q 251.98 22.804 250.928 22.804 L 250.928 22.804 L 250.928 22.804 Q 249.222 22.804 248.296 23.548 L 248.296 23.548 L 248.296 23.548 Q 247.371 24.292 247.371 25.381 L 247.371 25.381 L 247.371 25.381 Q 247.371 26.47 248.26 27.123 L 248.26 27.123 L 248.26 27.123 Q 249.149 27.776 250.311 27.776 L 250.311 27.776 L 250.311 27.776 Q 251.254 27.776 252.053 27.432 L 252.053 27.432 L 252.053 27.432 Q 252.851 27.087 253.414 26.524 L 253.414 26.524 L 253.414 26.524 Q 253.977 25.962 254.285 25.218 L 254.285 25.218 L 254.285 25.218 Q 254.594 24.474 254.594 23.675 Z  M 275.391 24.474 L 279.747 26.361 L 279.747 26.361 Q 278.585 28.611 276.498 30.045 L 276.498 30.045 L 276.498 30.045 Q 274.411 31.479 271.29 31.479 L 271.29 31.479 L 271.29 31.479 Q 269.221 31.479 267.497 30.771 L 267.497 30.771 L 267.497 30.771 Q 265.773 30.063 264.521 28.793 L 264.521 28.793 L 264.521 28.793 Q 263.268 27.523 262.561 25.798 L 262.561 25.798 L 262.561 25.798 Q 261.853 24.074 261.853 22.005 L 261.853 22.005 L 261.853 22.005 Q 261.853 19.936 262.561 18.194 L 262.561 18.194 L 262.561 18.194 Q 263.268 16.452 264.521 15.2 L 264.521 15.2 L 264.521 15.2 Q 265.773 13.947 267.497 13.24 L 267.497 13.24 L 267.497 13.24 Q 269.221 12.532 271.29 12.532 L 271.29 12.532 L 271.29 12.532 Q 274.375 12.532 276.48 13.947 L 276.48 13.947 L 276.48 13.947 Q 278.585 15.363 279.565 17.614 L 279.565 17.614 L 275.21 19.428 L 275.21 19.428 Q 274.593 18.194 273.631 17.559 L 273.631 17.559 L 273.631 17.559 Q 272.669 16.924 271.217 16.924 L 271.217 16.924 L 271.217 16.924 Q 270.274 16.924 269.439 17.287 L 269.439 17.287 L 269.439 17.287 Q 268.604 17.65 267.969 18.303 L 267.969 18.303 L 267.969 18.303 Q 267.334 18.957 266.971 19.9 L 266.971 19.9 L 266.971 19.9 Q 266.608 20.844 266.608 22.005 L 266.608 22.005 L 266.608 22.005 Q 266.608 23.167 266.971 24.111 L 266.971 24.111 L 266.971 24.111 Q 267.334 25.054 267.969 25.708 L 267.969 25.708 L 267.969 25.708 Q 268.604 26.361 269.439 26.724 L 269.439 26.724 L 269.439 26.724 Q 270.274 27.087 271.217 27.087 L 271.217 27.087 L 271.217 27.087 Q 272.705 27.087 273.74 26.415 L 273.74 26.415 L 273.74 26.415 Q 274.774 25.744 275.391 24.474 L 275.391 24.474 Z  M 282.65 30.898 L 282.65 4.91 L 287.405 4.91 L 287.405 19.065 L 287.623 19.065 L 293.576 13.113 L 299.456 13.113 L 299.456 13.403 L 292.85 19.828 L 300 30.608 L 300 30.898 L 294.374 30.898 L 289.51 23.094 L 287.405 25.163 L 287.405 30.898 L 282.65 30.898 Z " fill="rgb(51,65,85)"/></g></svg>